<svg xmlns="http://www.w3.org/2000/svg" enable-background="new 0 0 24 24" viewBox="0 0 24 24"><path fill="#f6f8ff80" d="M6.141 16.536H4.5c-.276 0-.5-.224-.5-.5V9c0-.276.224-.5.5-.5h1.641C7.442 8.5 8.5 9.558 8.5 10.859v3.317C8.5 15.477 7.442 16.536 6.141 16.536zM5 15.536h1.141c.75 0 1.359-.61 1.359-1.359v-3.317c0-.75-.609-1.359-1.359-1.359H5V15.536zM13.5 16.5H10c-.276 0-.5-.224-.5-.5V9c0-.276.224-.5.5-.5h3.5C13.776 8.5 14 8.724 14 9s-.224.5-.5.5h-3v6h3c.276 0 .5.224.5.5S13.776 16.5 13.5 16.5z"/><path fill="#f6f8ff80" d="M12.5 13H10c-.276 0-.5-.224-.5-.5S9.724 12 10 12h2.5c.276 0 .5.224.5.5S12.776 13 12.5 13zM17.5 16.536c-.224 0-.42-.148-.481-.363l-2-7.036c-.076-.266.079-.542.344-.618.266-.076.542.079.618.344l1.519 5.344 1.519-5.344c.076-.266.35-.421.618-.344.266.076.42.352.344.618l-2 7.036C17.92 16.387 17.724 16.536 17.5 16.536z"/><path fill="#f6f8ff80" d="M22.5,19h-21C0.673,19,0,18.327,0,17.5v-11C0,5.673,0.673,5,1.5,5h21C23.327,5,24,5.673,24,6.5v11C24,18.327,23.327,19,22.5,19z M1.5,6C1.224,6,1,6.224,1,6.5v11C1,17.776,1.224,18,1.5,18h21c0.276,0,0.5-0.224,0.5-0.5v-11C23,6.224,22.776,6,22.5,6H1.5z"/></svg>